<svg xmlns="http://www.w3.org/2000/svg" viewBox="0 0 1400 450"><defs><linearGradient id="fog" x2="0" y2="1"><stop stop-color="#31505a" stop-opacity=".2"/><stop offset="1" stop-color="#0c1920" stop-opacity=".05"/></linearGradient></defs><path d="M0 340L50 296L95 305L150 230L185 280L212 210L242 252L270 110L303 204L352 130L380 241L421 182L475 280L546 223L609 278L675 263L743 310L780 253L833 267L891 208L954 279L1000 130L1035 192L1100 43L1148 173L1200 104L1266 232L1320 188L1400 311V450H0Z" fill="url(#fog)"/><path d="M0 370L121 336L174 371L240 300L278 360L331 301L390 370L440 322L530 399L609 343L690 400L782 341L881 369L960 317L1004 360L1080 270L1138 359L1200 283L1300 365L1400 309V450H0Z" fill="#1a3039" opacity=".32"/><path d="M10 425Q350 387 691 420T1400 397M210 441Q520 412 870 439T1320 430" fill="none" stroke="#9d8656" stroke-opacity=".16"/></svg>